<svg width="200" height="200" viewBox="0 0 200 200" fill="none" xmlns="http://www.w3.org/2000/svg">
  <rect width="200" height="200" rx="10" fill="#b45309" opacity="0.1"/>
  <path d="M100,50 C120,50 140,60 140,80 C140,90 130,95 120,100 C110,105 110,110 100,110 C90,110 90,105 80,100 C70,95 60,90 60,80 C60,60 80,50 100,50 Z" fill="#b45309" opacity="0.2" stroke="#b45309" stroke-width="2"/>
  <path d="M85,80 L115,80" stroke="#b45309" stroke-width="2"/>
  <path d="M100,65 L100,95" stroke="#b45309" stroke-width="2"/>
  <text x="100" y="130" font-family="Arial, sans-serif" font-size="18" font-weight="bold" text-anchor="middle" fill="#b45309">مركز الصقور</text>
  <text x="100" y="150" font-family="Arial, sans-serif" font-size="12" text-anchor="middle" fill="#b45309">25 عاماً من الخبرة</text>
  <path d="M70,160 L130,160" stroke="#b45309" stroke-width="2"/>
  <path d="M80,170 L120,170" stroke="#b45309" stroke-width="2"/>
</svg>