<?xml version="1.0" encoding="UTF-8"?>
<svg width="800" height="600" viewBox="0 0 800 600" xmlns="http://www.w3.org/2000/svg">
  <!-- Background with light texture -->
  <rect width="800" height="600" fill="#f8f9fa" />
  
  <!-- Subtle geometric patterns inspired by Islamic design -->
  <g opacity="0.07">
    <path d="M0,0 L800,0 L800,600 L0,600 L0,0 Z" fill="#2a2665" />
  </g>
  
  <!-- Cybersecurity elements with Arab aesthetic influences -->
  <g opacity="0.1">
    <!-- Binary code pattern (representing digital data) with Arab geometric style -->
    <g fill="#2a2665">
      <!-- Row 1 -->
      <rect x="50" y="50" width="20" height="20" />
      <rect x="100" y="50" width="20" height="20" />
      <rect x="150" y="50" width="20" height="20" />
      <rect x="250" y="50" width="20" height="20" />
      <rect x="300" y="50" width="20" height="20" />
      <rect x="400" y="50" width="20" height="20" />
      <rect x="500" y="50" width="20" height="20" />
      <rect x="550" y="50" width="20" height="20" />
      <rect x="650" y="50" width="20" height="20" />
      <rect x="700" y="50" width="20" height="20" />
      
      <!-- Row 2 -->
      <rect x="100" y="100" width="20" height="20" />
      <rect x="200" y="100" width="20" height="20" />
      <rect x="250" y="100" width="20" height="20" />
      <rect x="300" y="100" width="20" height="20" />
      <rect x="350" y="100" width="20" height="20" />
      <rect x="450" y="100" width="20" height="20" />
      <rect x="550" y="100" width="20" height="20" />
      <rect x="650" y="100" width="20" height="20" />
      
      <!-- Row 3 -->
      <rect x="50" y="150" width="20" height="20" />
      <rect x="150" y="150" width="20" height="20" />
      <rect x="200" y="150" width="20" height="20" />
      <rect x="300" y="150" width="20" height="20" />
      <rect x="400" y="150" width="20" height="20" />
      <rect x="450" y="150" width="20" height="20" />
      <rect x="500" y="150" width="20" height="20" />
      <rect x="600" y="150" width="20" height="20" />
      <rect x="700" y="150" width="20" height="20" />
      
      <!-- Row 4 -->
      <rect x="100" y="200" width="20" height="20" />
      <rect x="150" y="200" width="20" height="20" />
      <rect x="250" y="200" width="20" height="20" />
      <rect x="350" y="200" width="20" height="20" />
      <rect x="400" y="200" width="20" height="20" />
      <rect x="500" y="200" width="20" height="20" />
      <rect x="550" y="200" width="20" height="20" />
      <rect x="650" y="200" width="20" height="20" />
      
      <!-- Row 5 -->
      <rect x="50" y="250" width="20" height="20" />
      <rect x="150" y="250" width="20" height="20" />
      <rect x="250" y="250" width="20" height="20" />
      <rect x="300" y="250" width="20" height="20" />
      <rect x="400" y="250" width="20" height="20" />
      <rect x="450" y="250" width="20" height="20" />
      <rect x="550" y="250" width="20" height="20" />
      <rect x="600" y="250" width="20" height="20" />
      <rect x="700" y="250" width="20" height="20" />
    </g>
  </g>
  
  <!-- Main cybersecurity visual elements -->
  <g opacity="0.2">
    <!-- Stylized lock with Arabian architectural influences -->
    <g transform="translate(400, 300)">
      <!-- Lock body with dome-like top resembling Arabian architecture -->
      <path d="M-70,0 L70,0 L70,80 L-70,80 Z" fill="#2a2665" />
      <path d="M-80,-30 A80,80 0 0,1 80,-30 L80,0 L-80,0 Z" fill="#2a2665" />
      
      <!-- Lock shackle (Arabian arch style) -->
      <path d="M-40,-30 L-40,-80 A40,40 0 0,1 40,-80 L40,-30" stroke="#b29567" stroke-width="15" fill="none" />
      
      <!-- Keyhole with Arabian decorative elements -->
      <circle cx="0" cy="40" r="25" fill="#f8f9fa" />
      <path d="M0,25 L0,55" stroke="#b29567" stroke-width="8" />
      <path d="M-10,45 L10,45" stroke="#b29567" stroke-width="8" />
      
      <!-- Arabian decorative elements on the lock -->
      <path d="M-60,10 L60,10" stroke="#b29567" stroke-width="2" />
      <path d="M-60,20 L60,20" stroke="#b29567" stroke-width="2" />
      <path d="M-60,70 L60,70" stroke="#b29567" stroke-width="2" />
      
      <!-- Arabian geometric patterns on lock face -->
      <g fill="#b29567">
        <path d="M-50,30 L-40,30 L-40,40 L-50,40 Z" />
        <path d="M-30,30 L-20,30 L-20,40 L-30,40 Z" />
        <path d="M20,30 L30,30 L30,40 L20,40 Z" />
        <path d="M40,30 L50,30 L50,40 L40,40 Z" />
        
        <path d="M-50,50 L-40,50 L-40,60 L-50,60 Z" />
        <path d="M-30,50 L-20,50 L-20,60 L-30,60 Z" />
        <path d="M20,50 L30,50 L30,60 L20,60 Z" />
        <path d="M40,50 L50,50 L50,60 L40,60 Z" />
      </g>
    </g>
    
    <!-- Digital shield elements -->
    <g transform="translate(400, 300)" opacity="0.8">
      <!-- Concentric protection circles inspired by Arabian circular patterns -->
      <circle cx="0" cy="0" r="150" stroke="#2a2665" stroke-width="2" fill="none" stroke-dasharray="10,10" />
      <circle cx="0" cy="0" r="180" stroke="#2a2665" stroke-width="1" fill="none" stroke-dasharray="5,10" />
      <circle cx="0" cy="0" r="210" stroke="#2a2665" stroke-width="1" fill="none" stroke-dasharray="2,8" />
    </g>
  </g>

  <!-- Decorative corner elements with cybersecurity symbols -->
  <g opacity="0.15">
    <!-- Top right -->
    <path d="M800,0 L650,0 A150,150 0 0,0 800,150 Z" fill="#b29567" />
    
    <!-- Bottom left -->
    <path d="M0,600 L150,600 A150,150 0 0,1 0,450 Z" fill="#2a2665" />
    
    <!-- Arabian-inspired key symbol -->
    <g transform="translate(730, 70)" fill="#2a2665">
      <circle cx="0" cy="0" r="15" />
      <rect x="-5" y="15" width="10" height="30" />
      <rect x="-10" y="20" width="5" height="5" />
      <rect x="5" y="30" width="5" height="5" />
      <rect x="-10" y="40" width="5" height="5" />
    </g>
    
    <!-- Shield symbol -->
    <g transform="translate(70, 530)">
      <path d="M0,0 L30,-20 L60,0 L60,30 C60,50 30,60 30,60 C30,60 0,50 0,30 Z" fill="#b29567" />
      <path d="M15,20 L25,30 L45,10" stroke="#2a2665" stroke-width="3" fill="none" />
    </g>
  </g>
</svg>