<?xml version="1.0" encoding="UTF-8"?>
<svg width="800" height="600" viewBox="0 0 800 600" xmlns="http://www.w3.org/2000/svg">
  <!-- Background with light texture -->
  <rect width="800" height="600" fill="#f8f9fa" />
  
  <!-- Subtle geometric patterns inspired by Islamic design -->
  <g opacity="0.07">
    <path d="M0,0 L800,0 L800,600 L0,600 L0,0 Z" fill="#2a2665" />
  </g>
  
  <!-- Digital elements with Arab/Saudi aesthetics -->
  <g opacity="0.15">
    <!-- Stylized circuit board pattern with geometric Islamic influences -->
    <g stroke="#2a2665" stroke-width="2" fill="none">
      <!-- Horizontal lines -->
      <path d="M100,100 L700,100" />
      <path d="M100,200 L700,200" />
      <path d="M100,300 L700,300" />
      <path d="M100,400 L700,400" />
      <path d="M100,500 L700,500" />
      
      <!-- Vertical lines -->
      <path d="M200,50 L200,550" />
      <path d="M400,50 L400,550" />
      <path d="M600,50 L600,550" />
      
      <!-- Connecting lines -->
      <path d="M100,100 L200,200" />
      <path d="M300,100 L400,200" />
      <path d="M500,100 L600,200" />
      
      <path d="M200,200 L300,300" />
      <path d="M400,200 L500,300" />
      <path d="M600,200 L700,300" />
      
      <path d="M100,300 L200,400" />
      <path d="M300,300 L400,400" />
      <path d="M500,300 L600,400" />
      
      <path d="M200,400 L300,500" />
      <path d="M400,400 L500,500" />
      <path d="M600,400 L700,500" />
    </g>
    
    <!-- Circuit nodes representing digital transformation -->
    <g fill="#b29567">
      <circle cx="100" cy="100" r="8" />
      <circle cx="200" cy="100" r="8" />
      <circle cx="300" cy="100" r="8" />
      <circle cx="400" cy="100" r="8" />
      <circle cx="500" cy="100" r="8" />
      <circle cx="600" cy="100" r="8" />
      <circle cx="700" cy="100" r="8" />
      
      <circle cx="200" cy="200" r="8" />
      <circle cx="400" cy="200" r="8" />
      <circle cx="600" cy="200" r="8" />
      
      <circle cx="100" cy="300" r="8" />
      <circle cx="300" cy="300" r="8" />
      <circle cx="500" cy="300" r="8" />
      <circle cx="700" cy="300" r="8" />
      
      <circle cx="200" cy="400" r="8" />
      <circle cx="400" cy="400" r="8" />
      <circle cx="600" cy="400" r="8" />
      
      <circle cx="100" cy="500" r="8" />
      <circle cx="300" cy="500" r="8" />
      <circle cx="500" cy="500" r="8" />
      <circle cx="700" cy="500" r="8" />
    </g>
  </g>
  
  <!-- Symbolic elements for digital transformation with Arab influences -->
  <g transform="translate(400, 300)" opacity="0.2">
    <!-- Traditional-to-modern symbolism -->
    <g fill="#2a2665">
      <!-- Traditional building outline (like a mosque or Arabian architecture) -->
      <path d="M-120,-100 L-80,-150 L-40,-100 L0,-150 L40,-100 L80,-150 L120,-100 L100,-70 L-100,-70 Z" />
      <path d="M-90,-70 L-90,70 L90,70 L90,-70" />
      
      <!-- Arch doorway -->
      <path d="M-30,-50 L-30,40 A30,30 0 0,0 30,40 L30,-50" fill="#f8f9fa" />
      
      <!-- Digital transformation elements overlaying the traditional architecture -->
      <g stroke="#b29567" stroke-width="3" fill="none">
        <path d="M-150,90 L150,90" />
        <path d="M-140,110 L140,110" />
        <path d="M-130,130 L130,130" />
        
        <!-- Binary code-like elements -->
        <g fill="#b29567" stroke="none">
          <rect x="-120" y="90" width="10" height="2" />
          <rect x="-100" y="90" width="10" height="2" />
          <rect x="-70" y="90" width="10" height="2" />
          <rect x="-50" y="90" width="10" height="2" />
          <rect x="-20" y="90" width="10" height="2" />
          <rect x="20" y="90" width="10" height="2" />
          <rect x="50" y="90" width="10" height="2" />
          <rect x="70" y="90" width="10" height="2" />
          <rect x="100" y="90" width="10" height="2" />
          
          <rect x="-110" y="110" width="10" height="2" />
          <rect x="-80" y="110" width="10" height="2" />
          <rect x="-40" y="110" width="10" height="2" />
          <rect x="-10" y="110" width="10" height="2" />
          <rect x="30" y="110" width="10" height="2" />
          <rect x="60" y="110" width="10" height="2" />
          <rect x="90" y="110" width="10" height="2" />
          <rect x="120" y="110" width="10" height="2" />
          
          <rect x="-120" y="130" width="10" height="2" />
          <rect x="-90" y="130" width="10" height="2" />
          <rect x="-60" y="130" width="10" height="2" />
          <rect x="-30" y="130" width="10" height="2" />
          <rect x="0" y="130" width="10" height="2" />
          <rect x="30" y="130" width="10" height="2" />
          <rect x="60" y="130" width="10" height="2" />
          <rect x="90" y="130" width="10" height="2" />
          <rect x="120" y="130" width="10" height="2" />
        </g>
      </g>
    </g>
  </g>

  <!-- Decorative corner elements -->
  <g opacity="0.15">
    <!-- Top right - modern digital corner -->
    <path d="M800,0 L650,0 A150,150 0 0,0 800,150 Z" fill="#2a2665" />
    <g fill="#b29567" transform="translate(720, 80)">
      <circle cx="0" cy="0" r="5" />
      <circle cx="20" cy="0" r="5" />
      <circle cx="40" cy="0" r="5" />
      <circle cx="0" cy="20" r="5" />
      <circle cx="20" cy="20" r="5" />
      <circle cx="40" cy="20" r="5" />
      <circle cx="0" cy="40" r="5" />
      <circle cx="20" cy="40" r="5" />
      <circle cx="40" cy="40" r="5" />
    </g>
    
    <!-- Bottom left - traditional pattern corner -->
    <path d="M0,600 L150,600 A150,150 0 0,1 0,450 Z" fill="#b29567" />
    <path d="M40,520 L110,520 L110,590 L40,590 Z" fill="#2a2665" opacity="0.2" />
    <path d="M60,540 L90,540 L90,570 L60,570 Z" fill="#f8f9fa" opacity="0.7" />
  </g>
</svg>