<?xml version="1.0" encoding="UTF-8"?>
<svg width="220" height="55" viewBox="0 0 220 55" xmlns="http://www.w3.org/2000/svg">
  <!-- بناء المعرفة -->
  <g fill="#2a2665">
    <!-- بناء -->
    <path d="M40,30 C40,17 30,15 25,15 C20,15 10,17 10,30 L10,45 L15,45 L15,30 C15,22 20,20 25,20 C30,20 35,22 35,30 L35,45 L40,45 L40,30 Z" />
    <path d="M50,15 L50,45 L55,45 L55,35 L65,35 C70,35 75,30 75,25 C75,20 70,15 65,15 L50,15 Z M55,20 L65,20 C67,20 70,22 70,25 C70,28 67,30 65,30 L55,30 L55,20 Z" />
    <path d="M85,15 L85,45 L90,45 L90,35 L95,35 L105,45 L112,45 L100,32 L110,15 L103,15 L95,27 L90,27 L90,15 L85,15 Z" />
    
    <!-- المعرفة -->
    <path d="M130,15 L130,45 L135,45 L135,35 L140,35 L150,45 L157,45 L145,32 L155,15 L148,15 L140,27 L135,27 L135,15 L130,15 Z" />
    <path d="M165,15 L165,45 L170,45 L170,15 L165,15 Z" />
    <path d="M180,15 L180,45 L185,45 L185,30 L195,45 L200,45 L200,15 L195,15 L195,30 L185,15 L180,15 Z" />
    <path d="M210,15 L210,45 L215,45 L215,15 L210,15 Z" />
  </g>
</svg>