<?xml version="1.0" encoding="UTF-8"?>
<svg width="800" height="400" viewBox="0 0 800 400" xmlns="http://www.w3.org/2000/svg">
  <!-- Background -->
  <rect width="800" height="400" fill="#f8f9fa" />
  
  <!-- Subtle gradient overlay -->
  <rect width="800" height="400" fill="url(#grad1)" opacity="0.7" />
  
  <!-- Decorative elements -->
  <g opacity="0.1">
    <path d="M0,0 L800,0 L800,400 L0,400 Z" fill="#2a2665" />
    
    <!-- Geometric pattern -->
    <g fill="#2a2665" transform="translate(50, 50)">
      <rect x="0" y="0" width="20" height="20" />
      <rect x="40" y="0" width="20" height="20" />
      <rect x="80" y="0" width="20" height="20" />
      <rect x="120" y="0" width="20" height="20" />
      
      <rect x="20" y="20" width="20" height="20" />
      <rect x="60" y="20" width="20" height="20" />
      <rect x="100" y="20" width="20" height="20" />
      
      <rect x="0" y="40" width="20" height="20" />
      <rect x="40" y="40" width="20" height="20" />
      <rect x="80" y="40" width="20" height="20" />
      <rect x="120" y="40" width="20" height="20" />
    </g>
    
    <g fill="#2a2665" transform="translate(600, 280)">
      <rect x="0" y="0" width="20" height="20" />
      <rect x="40" y="0" width="20" height="20" />
      <rect x="80" y="0" width="20" height="20" />
      <rect x="120" y="0" width="20" height="20" />
      
      <rect x="20" y="20" width="20" height="20" />
      <rect x="60" y="20" width="20" height="20" />
      <rect x="100" y="20" width="20" height="20" />
      
      <rect x="0" y="40" width="20" height="20" />
      <rect x="40" y="40" width="20" height="20" />
      <rect x="80" y="40" width="20" height="20" />
      <rect x="120" y="40" width="20" height="20" />
    </g>
  </g>
  
  <!-- Arabic/Saudi styled leadership characters -->
  <g transform="translate(200, 200)">
    <!-- Main leader character (male) with traditional Saudi thobe -->
    <g>
      <!-- Head with shemagh -->
      <circle cx="0" cy="-55" r="25" fill="#e8d8c7" />
      <path d="M-25,-55 C-25,-30 25,-30 25,-55" fill="#ffffff" />
      <path d="M-25,-60 L25,-60 L25,-80 L-25,-80 Z" fill="#ffffff" />
      <path d="M-25,-60 C-5,-50 5,-50 25,-60" fill="#ffffff" />
      <path d="M-25,-60 L-28,-80 L25,-80 L28,-60 Z" fill="#b29567" />
      
      <!-- Face -->
      <circle cx="-10" cy="-55" r="3" fill="#2a2665" />
      <circle cx="10" cy="-55" r="3" fill="#2a2665" />
      <path d="M-5,-45 C-2,-42 2,-42 5,-45" stroke="#2a2665" stroke-width="1.5" fill="none" />
      
      <!-- Body with thobe (traditional Saudi dress) -->
      <path d="M0,-30 L-40,70 L40,70 Z" fill="#ffffff" />
      <path d="M-15,-30 L-15,40" stroke="#f0f0f0" stroke-width="1" />
      <path d="M15,-30 L15,40" stroke="#f0f0f0" stroke-width="1" />
      
      <!-- Arms -->
      <path d="M-15,-10 L-50,30" stroke="#ffffff" stroke-width="15" stroke-linecap="round" />
      <path d="M15,-10 L50,30" stroke="#ffffff" stroke-width="15" stroke-linecap="round" />
      
      <!-- Hands -->
      <circle cx="-50" cy="30" r="8" fill="#e8d8c7" />
      <circle cx="50" cy="30" r="8" fill="#e8d8c7" />
      
      <!-- Pointer gesture -->
      <path d="M-50,25 L-50,15" stroke="#2a2665" stroke-width="1.5" />
      
      <!-- Legs -->
      <path d="M-20,70 L-30,120" stroke="#ffffff" stroke-width="18" stroke-linecap="round" />
      <path d="M20,70 L30,120" stroke="#ffffff" stroke-width="18" stroke-linecap="round" />
      
      <!-- Feet -->
      <path d="M-38,120 L-22,120" stroke="#5d4037" stroke-width="5" stroke-linecap="round" />
      <path d="M22,120 L38,120" stroke="#5d4037" stroke-width="5" stroke-linecap="round" />
    </g>
    
    <!-- Team members -->
    <g transform="translate(-120, 20) scale(0.7)">
      <!-- Female Saudi character with abaya -->
      <circle cx="0" cy="-55" r="22" fill="#e8d8c7" />
      <path d="M-25,-50 C-25,-35 25,-35 25,-50" fill="#000000" />
      <path d="M-30,-50 L30,-50 L20,70 L-20,70 Z" fill="#000000" />
      <circle cx="-8" cy="-55" r="3" fill="#2a2665" />
      <circle cx="8" cy="-55" r="3" fill="#2a2665" />
      <path d="M-4,-45 C-2,-43 2,-43 4,-45" stroke="#2a2665" stroke-width="1" fill="none" />
      
      <!-- Arms -->
      <path d="M-20,-10 L-40,30" stroke="#000000" stroke-width="12" stroke-linecap="round" />
      <path d="M20,-10 L40,30" stroke="#000000" stroke-width="12" stroke-linecap="round" />
      
      <!-- Hands -->
      <circle cx="-40" cy="30" r="6" fill="#e8d8c7" />
      <circle cx="40" cy="30" r="6" fill="#e8d8c7" />
      
      <!-- Digital tablet -->
      <rect x="-25" y="20" width="50" height="35" rx="2" fill="#b29567" />
      <rect x="-20" y="25" width="40" height="25" rx="1" fill="#ffffff" />
    </g>
    
    <g transform="translate(120, 20) scale(0.7)">
      <!-- Male team member with thobe -->
      <circle cx="0" cy="-55" r="22" fill="#e8d8c7" />
      <path d="M-22,-55 C-22,-33 22,-33 22,-55" fill="#ffffff" />
      <path d="M-22,-55 L-25,-75 L25,-75 L22,-55 Z" fill="#b29567" />
      <circle cx="-8" cy="-55" r="3" fill="#2a2665" />
      <circle cx="8" cy="-55" r="3" fill="#2a2665" />
      <path d="M-4,-45 C-2,-43 2,-43 4,-45" stroke="#2a2665" stroke-width="1" fill="none" />
      
      <!-- Body -->
      <path d="M0,-33 L-30,70 L30,70 Z" fill="#ffffff" />
      
      <!-- Arms -->
      <path d="M-15,-10 L-40,20" stroke="#ffffff" stroke-width="12" stroke-linecap="round" />
      <path d="M15,-10 L40,20" stroke="#ffffff" stroke-width="12" stroke-linecap="round" />
      
      <!-- Hands -->
      <circle cx="-40" cy="20" r="6" fill="#e8d8c7" />
      <circle cx="40" cy="20" r="6" fill="#e8d8c7" />
      
      <!-- Papers/Documents -->
      <path d="M15,20 L50,10 L45,40 L10,50 Z" fill="#f5f5f5" stroke="#2a2665" stroke-width="0.5" />
      <path d="M12,22 L44,13" stroke="#2a2665" stroke-width="0.5" />
      <path d="M14,28 L46,19" stroke="#2a2665" stroke-width="0.5" />
      <path d="M16,34 L48,25" stroke="#2a2665" stroke-width="0.5" />
    </g>
  </g>
  
  <!-- Decorative corner elements -->
  <g opacity="0.2">
    <!-- Top left -->
    <path d="M0,0 L150,0 A150,150 0 0,0 0,150 Z" fill="#b29567" />
    
    <!-- Bottom right -->
    <path d="M800,400 L650,400 A150,150 0 0,0 800,250 Z" fill="#2a2665" />
  </g>
  
  <!-- Gradients -->
  <defs>
    <linearGradient id="grad1" x1="0%" y1="0%" x2="100%" y2="100%">
      <stop offset="0%" style="stop-color:#2a2665;stop-opacity:0.05" />
      <stop offset="100%" style="stop-color:#b29567;stop-opacity:0.05" />
    </linearGradient>
  </defs>
</svg>