<svg width="500" height="500" viewBox="0 0 500 500" fill="none" xmlns="http://www.w3.org/2000/svg">
  <!-- وجه بملامح عربية -->
  <circle cx="250" cy="180" r="95" fill="#d4a370"/>
  <ellipse cx="250" cy="140" rx="85" ry="100" fill="#d4a370"/>
  
  <!-- اللحية الخفيفة -->
  <path d="M215,180 C215,210 230,240 250,240 C270,240 285,210 285,180" fill="#634d40" fill-opacity="0.7"/>
  
  <!-- الشماغ بلون أبيض وأحمر -->
  <path d="M150,145 L350,145 L350,75 L150,75 Z" fill="#ffffff"/>
  <path d="M150,145 L170,185 L330,185 L350,145 Z" fill="#ffffff"/>
  <path d="M150,145 L130,185 L150,225 L170,185 Z" fill="#ffffff"/>
  <path d="M350,145 L370,185 L350,225 L330,185 Z" fill="#ffffff"/>
  
  <!-- العقال -->
  <ellipse cx="250" cy="115" rx="100" ry="25" fill="#000000"/>
  <ellipse cx="250" cy="115" rx="90" ry="15" fill="none" stroke="#000000" stroke-width="5"/>
  
  <!-- الثوب -->
  <path d="M150,225 L350,225 L380,500 L120,500 Z" fill="#ffffff"/>
  <path d="M170,345 L330,345 L350,500 L150,500 Z" fill="#ffffff" stroke="#ededed" stroke-width="2"/>
  
  <!-- نقوش الشماغ -->
  <path d="M150,95 L350,95 M150,115 L350,115 M150,135 L350,135" stroke="#a00" stroke-width="2" stroke-dasharray="4 4"/>
  <path d="M170,75 L170,145 M190,75 L190,145 M210,75 L210,145 M230,75 L230,145 M250,75 L250,145 M270,75 L270,145 M290,75 L290,145 M310,75 L310,145 M330,75 L330,145" stroke="#a00" stroke-width="2" stroke-dasharray="4 4"/>
  
  <!-- المشلح -->
  <path d="M150,225 L350,225 L400,500 L100,500 Z" fill="none" stroke="#3a3a3a" stroke-width="20" stroke-linejoin="round"/>
  
  <!-- تفاصيل الوجه -->
  <ellipse cx="220" cy="160" rx="8" ry="5" fill="#4a2513"/>
  <ellipse cx="280" cy="160" rx="8" ry="5" fill="#4a2513"/>
  <path d="M240,170 Q250,180 260,170" stroke="#4a2513" stroke-width="3" fill="none"/>
  <path d="M220,155 L210,145 M280,155 L290,145" stroke="#4a2513" stroke-width="2" fill="none"/>
  
  <!-- النظارات -->
  <circle cx="220" cy="160" r="15" stroke="#555555" stroke-width="2" fill="none"/>
  <circle cx="280" cy="160" r="15" stroke="#555555" stroke-width="2" fill="none"/>
  <path d="M235,160 L265,160" stroke="#555555" stroke-width="2"/>
  <path d="M205,150 L195,145 M295,150 L305,145" stroke="#555555" stroke-width="2"/>
</svg>