<svg width="500" height="500" viewBox="0 0 500 500" fill="none" xmlns="http://www.w3.org/2000/svg">
  <!-- الوجه -->
  <ellipse cx="250" cy="180" rx="70" ry="90" fill="#e0ac69"/>
  
  <!-- العباية -->
  <path d="M120,230 L380,230 L400,500 L100,500 Z" fill="#000000"/>
  
  <!-- الحجاب -->
  <path d="M180,180 C180,100 320,100 320,180 C320,230 300,250 250,250 C200,250 180,230 180,180 Z" fill="#000000"/>
  <path d="M180,180 C180,120 320,120 320,180" stroke="#000000" stroke-width="10"/>
  
  <!-- الوشاح -->
  <path d="M200,230 L300,230 L320,300 L180,300 Z" fill="#000000" stroke="#444444" stroke-width="5"/>
  
  <!-- تفاصيل الوجه -->
  <ellipse cx="225" cy="160" rx="8" ry="5" fill="#4a2513"/>
  <ellipse cx="275" cy="160" rx="8" ry="5" fill="#4a2513"/>
  <path d="M240,175 Q250,185 260,175" stroke="#4a2513" stroke-width="3" fill="none"/>
  <path d="M225,155 L215,145 M275,155 L285,145" stroke="#4a2513" stroke-width="2" fill="none"/>
  
  <!-- الأنف -->
  <path d="M250,165 L250,185" stroke="#4a2513" stroke-width="2"/>
  
  <!-- زخرفة على العباية -->
  <path d="M150,240 L350,240" stroke="#444444" stroke-width="2"/>
  <path d="M140,260 L360,260" stroke="#444444" stroke-width="2"/>
  <path d="M135,280 L365,280" stroke="#444444" stroke-width="2"/>
  
  <!-- زخرفة على الأكمام -->
  <path d="M130,300 L150,400 M370,300 L350,400" stroke="#444444" stroke-width="3" fill="none"/>
  <path d="M140,320 L155,380 M360,320 L345,380" stroke="#666666" stroke-width="2" fill="none"/>
  
  <!-- إكسسوارات -->
  <circle cx="250" cy="330" r="8" fill="#b89264"/>
  <circle cx="250" cy="360" r="8" fill="#b89264"/>
  <circle cx="250" cy="390" r="8" fill="#b89264"/>
</svg>