<svg width="300" height="300" xmlns="http://www.w3.org/2000/svg">
  <!-- نمط خلفية الأمن السيبراني - درع ومفاتيح تشفير -->
  <defs>
    <linearGradient id="gradCyber" x1="0%" y1="0%" x2="100%" y2="100%">
      <stop offset="0%" style="stop-color:#2a2665;stop-opacity:0.1" />
      <stop offset="100%" style="stop-color:#2a2665;stop-opacity:0.3" />
    </linearGradient>
  </defs>
  
  <!-- شبكة أمنية -->
  <path d="M20,20 L280,20 L280,280 L20,280 Z" fill="none" stroke="#ffffff" stroke-width="1" opacity="0.1" />
  <path d="M40,40 L260,40 L260,260 L40,260 Z" fill="none" stroke="#ffffff" stroke-width="1" opacity="0.1" />
  <path d="M60,60 L240,60 L240,240 L60,240 Z" fill="none" stroke="#ffffff" stroke-width="1" opacity="0.1" />
  
  <!-- درع الحماية -->
  <path d="M150,50 L200,80 L200,150 C200,200 150,220 150,220 C150,220 100,200 100,150 L100,80 Z" 
        fill="none" stroke="#b29567" stroke-width="2" opacity="0.5" />
  
  <!-- رموز الحماية - قفل -->
  <rect x="135" y="140" width="30" height="25" rx="5" fill="#b29567" opacity="0.5" />
  <rect x="140" y="120" width="20" height="30" rx="8" fill="none" stroke="#b29567" stroke-width="2" opacity="0.5" />
  
  <!-- رموز تشفير -->
  <text x="70" y="70" font-family="monospace" font-size="12" fill="#ffffff" opacity="0.2">101010</text>
  <text x="200" y="90" font-family="monospace" font-size="12" fill="#ffffff" opacity="0.2">001101</text>
  <text x="100" y="200" font-family="monospace" font-size="12" fill="#ffffff" opacity="0.2">110011</text>
  <text x="180" y="220" font-family="monospace" font-size="12" fill="#ffffff" opacity="0.2">010110</text>
  
  <!-- خطوط اتصال أمنية -->
  <line x1="50" y1="50" x2="100" y2="100" stroke="#ffffff" stroke-width="1" opacity="0.2" />
  <line x1="250" y1="50" x2="200" y2="100" stroke="#ffffff" stroke-width="1" opacity="0.2" />
  <line x1="50" y1="250" x2="100" y2="200" stroke="#ffffff" stroke-width="1" opacity="0.2" />
  <line x1="250" y1="250" x2="200" y2="200" stroke="#ffffff" stroke-width="1" opacity="0.2" />
</svg>