<?xml version="1.0" encoding="UTF-8"?>
<svg xmlns="http://www.w3.org/2000/svg" width="280" height="200" viewBox="0 0 280 200" fill="none">
  <g transform="translate(40, 20)">
    <path d="M134.07 117.159C146.35 117.159 156.29 107.219 156.29 94.939C156.29 82.659 146.35 72.719 134.07 72.719C121.79 72.719 111.85 82.659 111.85 94.939C111.85 107.219 121.79 117.159 134.07 117.159Z" fill="#2A2665"/>
    <path d="M154.5 92.85H149.76V94.529H154.5V92.85Z" fill="#fff"/>
    <path d="M167.22 87.389H162.48V89.069H167.22V87.389Z" fill="#fff"/>
    <path d="M124.31 107.499L125.71 108.899L128.51 106.099L127.11 104.699L124.31 107.499Z" fill="#fff"/>
    <g transform="scale(1.5)">
      <path d="M80 90C80 95.523 75.523 100 70 100C64.477 100 60 95.523 60 90C60 84.477 64.477 80 70 80C75.523 80 80 84.477 80 90Z" fill="#fff"/>
      <path d="M75 82H65C63.895 82 63 82.895 63 84V96C63 97.105 63.895 98 65 98H75C76.105 98 77 97.105 77 96V84C77 82.895 76.105 82 75 82Z" fill="#2A2665"/>
      <path d="M67 87H73M67 91H73M67 95H71" stroke="#fff" stroke-width="1.5" stroke-linecap="round" stroke-linejoin="round"/>
    </g>
    
    <g transform="translate(-20, 20) scale(0.8)">
      <path d="M70 50C75.5228 50 80 45.5228 80 40C80 34.4772 75.5228 30 70 30C64.4772 30 60 34.4772 60 40C60 45.5228 64.4772 50 70 50Z" fill="#B29567"/>
      <path d="M85 60C85 52.268 78.732 46 71 46H69C61.268 46 55 52.268 55 60H85Z" fill="#B29567"/>
    </g>
    
    <g transform="translate(40, 10) scale(0.8)">
      <path d="M70 50C75.5228 50 80 45.5228 80 40C80 34.4772 75.5228 30 70 30C64.4772 30 60 34.4772 60 40C60 45.5228 64.4772 50 70 50Z" fill="#B29567"/>
      <path d="M85 60C85 52.268 78.732 46 71 46H69C61.268 46 55 52.268 55 60H85Z" fill="#B29567"/>
    </g>
    
    <g transform="translate(0, 30) scale(0.8)">
      <path d="M70 50C75.5228 50 80 45.5228 80 40C80 34.4772 75.5228 30 70 30C64.4772 30 60 34.4772 60 40C60 45.5228 64.4772 50 70 50Z" fill="#B29567"/>
      <path d="M85 60C85 52.268 78.732 46 71 46H69C61.268 46 55 52.268 55 60H85Z" fill="#B29567"/>
    </g>
    
    <g transform="translate(70, 40) scale(0.8)">
      <path d="M70 50C75.5228 50 80 45.5228 80 40C80 34.4772 75.5228 30 70 30C64.4772 30 60 34.4772 60 40C60 45.5228 64.4772 50 70 50Z" fill="#B29567"/>
      <path d="M85 60C85 52.268 78.732 46 71 46H69C61.268 46 55 52.268 55 60H85Z" fill="#B29567"/>
    </g>
    
    <g transform="translate(130, 0) scale(0.8)">
      <path d="M70 50C75.5228 50 80 45.5228 80 40C80 34.4772 75.5228 30 70 30C64.4772 30 60 34.4772 60 40C60 45.5228 64.4772 50 70 50Z" fill="#B29567"/>
      <path d="M85 60C85 52.268 78.732 46 71 46H69C61.268 46 55 52.268 55 60H85Z" fill="#B29567"/>
    </g>
  </g>
</svg>