<?xml version="1.0" encoding="UTF-8"?>
<svg width="300" height="200" viewBox="0 0 300 200" xmlns="http://www.w3.org/2000/svg">
  <style>
    .people { fill: #2A2665; }
    .accent { fill: #B29567; }
    .light { fill: #DDE6FF; }
    .medium { fill: #8892B0; }
  </style>
  
  <!-- Clock -->
  <circle cx="180" cy="90" r="35" class="light" />
  <circle cx="180" cy="90" r="30" fill="white" stroke="#2A2665" stroke-width="3" />
  <line x1="180" y1="90" x2="180" y2="75" stroke="#2A2665" stroke-width="3" stroke-linecap="round" />
  <line x1="180" y1="90" x2="190" y2="100" stroke="#2A2665" stroke-width="3" stroke-linecap="round" />
  
  <!-- Document Icons -->
  <rect x="130" y="60" width="20" height="25" rx="2" fill="white" stroke="#2A2665" stroke-width="2" />
  <rect x="134" y="66" width="12" height="2" rx="1" fill="#B29567" />
  <rect x="134" y="71" width="12" height="2" rx="1" fill="#B29567" />
  <rect x="134" y="76" width="8" height="2" rx="1" fill="#B29567" />
  
  <rect x="210" y="70" width="20" height="25" rx="2" fill="white" stroke="#2A2665" stroke-width="2" />
  <rect x="214" y="76" width="12" height="2" rx="1" fill="#B29567" />
  <rect x="214" y="81" width="12" height="2" rx="1" fill="#B29567" />
  <rect x="214" y="86" width="8" height="2" rx="1" fill="#B29567" />
  
  <!-- People -->
  <circle cx="130" cy="130" r="15" class="people" />
  <rect x="125" y="145" width="10" height="20" rx="5" class="people" />
  
  <circle cx="160" cy="125" r="12" class="people" />
  <rect x="155" y="137" width="10" height="18" rx="5" class="people" />
  
  <circle cx="190" cy="135" r="14" class="people" />
  <rect x="185" y="149" width="10" height="16" rx="5" class="people" />
  
  <circle cx="220" cy="125" r="13" class="people" />
  <rect x="215" y="138" width="10" height="18" rx="5" class="people" />
  
  <!-- Icon/Badge -->
  <circle cx="100" cy="80" r="20" class="accent" opacity="0.8" />
  <path d="M95 80L100 85L110 75" stroke="white" stroke-width="3" stroke-linecap="round" stroke-linejoin="round" fill="none" />
  
  <!-- Connections -->
  <line x1="130" y1="110" x2="220" y2="110" stroke="#B29567" stroke-width="1" stroke-dasharray="4 2" />
</svg>