<?xml version="1.0" encoding="UTF-8"?>
<svg width="120" height="120" viewBox="0 0 120 120" xmlns="http://www.w3.org/2000/svg">
  <g fill="#fff" fill-rule="nonzero">
    <circle cx="10" cy="10" r="2" opacity="0.3" />
    <circle cx="30" cy="10" r="2" opacity="0.3" />
    <circle cx="50" cy="10" r="2" opacity="0.3" />
    <circle cx="70" cy="10" r="2" opacity="0.3" />
    <circle cx="90" cy="10" r="2" opacity="0.3" />
    <circle cx="110" cy="10" r="2" opacity="0.3" />
    
    <circle cx="10" cy="30" r="2" opacity="0.3" />
    <circle cx="30" cy="30" r="2" opacity="0.3" />
    <circle cx="50" cy="30" r="2" opacity="0.3" />
    <circle cx="70" cy="30" r="2" opacity="0.3" />
    <circle cx="90" cy="30" r="2" opacity="0.3" />
    <circle cx="110" cy="30" r="2" opacity="0.3" />
    
    <circle cx="10" cy="50" r="2" opacity="0.3" />
    <circle cx="30" cy="50" r="2" opacity="0.3" />
    <circle cx="50" cy="50" r="2" opacity="0.3" />
    <circle cx="70" cy="50" r="2" opacity="0.3" />
    <circle cx="90" cy="50" r="2" opacity="0.3" />
    <circle cx="110" cy="50" r="2" opacity="0.3" />
    
    <circle cx="10" cy="70" r="2" opacity="0.3" />
    <circle cx="30" cy="70" r="2" opacity="0.3" />
    <circle cx="50" cy="70" r="2" opacity="0.3" />
    <circle cx="70" cy="70" r="2" opacity="0.3" />
    <circle cx="90" cy="70" r="2" opacity="0.3" />
    <circle cx="110" cy="70" r="2" opacity="0.3" />
    
    <circle cx="10" cy="90" r="2" opacity="0.3" />
    <circle cx="30" cy="90" r="2" opacity="0.3" />
    <circle cx="50" cy="90" r="2" opacity="0.3" />
    <circle cx="70" cy="90" r="2" opacity="0.3" />
    <circle cx="90" cy="90" r="2" opacity="0.3" />
    <circle cx="110" cy="90" r="2" opacity="0.3" />
    
    <circle cx="10" cy="110" r="2" opacity="0.3" />
    <circle cx="30" cy="110" r="2" opacity="0.3" />
    <circle cx="50" cy="110" r="2" opacity="0.3" />
    <circle cx="70" cy="110" r="2" opacity="0.3" />
    <circle cx="90" cy="110" r="2" opacity="0.3" />
    <circle cx="110" cy="110" r="2" opacity="0.3" />

    <circle cx="20" cy="20" r="1.5" opacity="0.2" />
    <circle cx="40" cy="20" r="1.5" opacity="0.2" />
    <circle cx="60" cy="20" r="1.5" opacity="0.2" />
    <circle cx="80" cy="20" r="1.5" opacity="0.2" />
    <circle cx="100" cy="20" r="1.5" opacity="0.2" />
    
    <circle cx="20" cy="40" r="1.5" opacity="0.2" />
    <circle cx="40" cy="40" r="1.5" opacity="0.2" />
    <circle cx="60" cy="40" r="1.5" opacity="0.2" />
    <circle cx="80" cy="40" r="1.5" opacity="0.2" />
    <circle cx="100" cy="40" r="1.5" opacity="0.2" />
    
    <circle cx="20" cy="60" r="1.5" opacity="0.2" />
    <circle cx="40" cy="60" r="1.5" opacity="0.2" />
    <circle cx="60" cy="60" r="1.5" opacity="0.2" />
    <circle cx="80" cy="60" r="1.5" opacity="0.2" />
    <circle cx="100" cy="60" r="1.5" opacity="0.2" />
    
    <circle cx="20" cy="80" r="1.5" opacity="0.2" />
    <circle cx="40" cy="80" r="1.5" opacity="0.2" />
    <circle cx="60" cy="80" r="1.5" opacity="0.2" />
    <circle cx="80" cy="80" r="1.5" opacity="0.2" />
    <circle cx="100" cy="80" r="1.5" opacity="0.2" />
    
    <circle cx="20" cy="100" r="1.5" opacity="0.2" />
    <circle cx="40" cy="100" r="1.5" opacity="0.2" />
    <circle cx="60" cy="100" r="1.5" opacity="0.2" />
    <circle cx="80" cy="100" r="1.5" opacity="0.2" />
    <circle cx="100" cy="100" r="1.5" opacity="0.2" />
  </g>
</svg>