<?xml version="1.0" encoding="UTF-8"?>
<svg xmlns="http://www.w3.org/2000/svg" width="400" height="200" viewBox="0 0 400 200" fill="none">
  <!-- Gradient background -->
  <rect width="400" height="200" fill="url(#strategy-gradient)"/>
  
  <!-- Target/bullseye -->
  <circle cx="140" cy="100" r="60" fill="white" fill-opacity="0.1"/>
  <circle cx="140" cy="100" r="40" fill="white" fill-opacity="0.2"/>
  <circle cx="140" cy="100" r="20" fill="white" fill-opacity="0.3"/>
  <circle cx="140" cy="100" r="5" fill="white" fill-opacity="0.9"/>
  
  <!-- Arrow to target -->
  <path d="M220 100 L160 100" stroke="white" stroke-width="2"/>
  <path d="M160 100 L175 95 L175 105 Z" fill="white"/>
  
  <!-- Strategy elements -->
  <rect x="250" y="60" width="100" height="4" fill="white" fill-opacity="0.8"/>
  <rect x="250" y="80" width="80" height="4" fill="white" fill-opacity="0.7"/>
  <rect x="250" y="100" width="120" height="4" fill="white" fill-opacity="0.9"/>
  <rect x="250" y="120" width="60" height="4" fill="white" fill-opacity="0.6"/>
  <rect x="250" y="140" width="90" height="4" fill="white" fill-opacity="0.7"/>
  
  <!-- Leadership icon -->
  <circle cx="320" cy="40" r="15" fill="white" fill-opacity="0.7"/>
  <path d="M320 55 L320 85" stroke="white" stroke-width="2" stroke-opacity="0.7"/>
  <path d="M310 65 L320 60 L330 65" stroke="white" stroke-width="2" stroke-opacity="0.7" fill="none"/>
  <path d="M300 75 L320 70 L340 75" stroke="white" stroke-width="2" stroke-opacity="0.7" fill="none"/>
  
  <!-- Gradient definition -->
  <defs>
    <linearGradient id="strategy-gradient" x1="0" y1="0" x2="400" y2="200" gradientUnits="userSpaceOnUse">
      <stop offset="0" stop-color="#2a2665"/>
      <stop offset="1" stop-color="#2a5094"/>
    </linearGradient>
  </defs>
</svg>