<?xml version="1.0" encoding="UTF-8"?>
<svg xmlns="http://www.w3.org/2000/svg" width="400" height="200" viewBox="0 0 400 200" fill="none">
  <!-- Gradient background -->
  <rect width="400" height="200" fill="url(#consultations-gradient)"/>
  
  <!-- Abstract discussion bubbles -->
  <path d="M80 60 L120 60 C130 60 140 70 140 80 L140 100 C140 110 130 120 120 120 L100 120 L90 140 L90 120 L80 120 C70 120 60 110 60 100 L60 80 C60 70 70 60 80 60 Z" 
        fill="white" fill-opacity="0.08" stroke="white" stroke-width="1" stroke-opacity="0.3"/>
  
  <path d="M280 80 L320 80 C330 80 340 90 340 100 L340 120 C340 130 330 140 320 140 L300 140 L290 160 L290 140 L280 140 C270 140 260 130 260 120 L260 100 C260 90 270 80 280 80 Z" 
        fill="white" fill-opacity="0.08" stroke="white" stroke-width="1" stroke-opacity="0.3"/>
  
  <path d="M180 40 L220 40 C230 40 240 50 240 60 L240 80 C240 90 230 100 220 100 L200 100 L190 120 L190 100 L180 100 C170 100 160 90 160 80 L160 60 C160 50 170 40 180 40 Z" 
        fill="white" fill-opacity="0.08" stroke="white" stroke-width="1" stroke-opacity="0.3"/>
  
  <!-- Consultant and client figures -->
  <circle cx="100" cy="160" r="12" fill="white" fill-opacity="0.15"/>
  <path d="M100 172 L100 185" stroke="white" stroke-width="2" stroke-opacity="0.3"/>
  <path d="M90 175 L100 172 L110 175" stroke="white" stroke-width="2" stroke-opacity="0.3" fill="none"/>
  
  <circle cx="300" cy="160" r="12" fill="white" fill-opacity="0.15"/>
  <path d="M300 172 L300 185" stroke="white" stroke-width="2" stroke-opacity="0.3"/>
  <path d="M290 175 L300 172 L310 175" stroke="white" stroke-width="2" stroke-opacity="0.3" fill="none"/>
  
  <!-- Connection elements -->
  <line x1="130" y1="160" x2="270" y2="160" stroke="white" stroke-width="1" stroke-opacity="0.2" stroke-dasharray="3,3"/>
  
  <!-- Analysis elements -->
  <path d="M170 120 L180 115 L190 125 L200 110 L210 120 L220 115 L230 130" 
        stroke="white" stroke-width="2" stroke-opacity="0.3" fill="none"/>
  <line x1="170" y1="130" x2="230" y2="130" stroke="white" stroke-width="1" stroke-opacity="0.3"/>
  <line x1="170" y1="130" x2="170" y2="110" stroke="white" stroke-width="1" stroke-opacity="0.3"/>
  
  <!-- Document icons -->
  <rect x="90" y="90" width="20" height="25" rx="2" stroke="white" stroke-width="1" stroke-opacity="0.3" fill="none"/>
  <line x1="95" y1="95" x2="105" y2="95" stroke="white" stroke-width="1" stroke-opacity="0.3"/>
  <line x1="95" y1="100" x2="105" y2="100" stroke="white" stroke-width="1" stroke-opacity="0.3"/>
  <line x1="95" y1="105" x2="105" y2="105" stroke="white" stroke-width="1" stroke-opacity="0.3"/>
  
  <rect x="290" y="110" width="20" height="25" rx="2" stroke="white" stroke-width="1" stroke-opacity="0.3" fill="none"/>
  <line x1="295" y1="115" x2="305" y2="115" stroke="white" stroke-width="1" stroke-opacity="0.3"/>
  <line x1="295" y1="120" x2="305" y2="120" stroke="white" stroke-width="1" stroke-opacity="0.3"/>
  <line x1="295" y1="125" x2="305" y2="125" stroke="white" stroke-width="1" stroke-opacity="0.3"/>
  
  <!-- Decorative elements -->
  <circle cx="50" cy="40" r="5" fill="white" fill-opacity="0.1"/>
  <circle cx="60" cy="30" r="3" fill="white" fill-opacity="0.1"/>
  <circle cx="40" cy="30" r="2" fill="white" fill-opacity="0.1"/>
  
  <circle cx="350" cy="40" r="5" fill="white" fill-opacity="0.1"/>
  <circle cx="360" cy="30" r="3" fill="white" fill-opacity="0.1"/>
  <circle cx="340" cy="30" r="2" fill="white" fill-opacity="0.1"/>
  
  <!-- Gradient definition -->
  <defs>
    <linearGradient id="consultations-gradient" x1="0" y1="0" x2="400" y2="200" gradientUnits="userSpaceOnUse">
      <stop offset="0" stop-color="#9e78a9"/>
      <stop offset="1" stop-color="#b28bbe"/>
    </linearGradient>
  </defs>
</svg>